<?xml version="1.0" encoding="utf-8"?>
<!-- Generator: Adobe Illustrator 21.0.2, SVG Export Plug-In . SVG Version: 6.00 Build 0)  -->
<svg version="1.1" id="Layer_1" xmlns="http://www.w3.org/2000/svg" xmlns:xlink="http://www.w3.org/1999/xlink" x="0px" y="0px"
	 viewBox="0 0 540 540" style="enable-background:new 0 0 540 540;" xml:space="preserve">
<style type="text/css">
	.st0{fill:#FFFFFF;stroke:#484446;stroke-width:10;stroke-miterlimit:10;}
	.st1{fill:none;stroke:#484446;stroke-width:10;stroke-miterlimit:10;}
	.st2{fill:#484446;}
</style>
<g>
	<circle class="st0" cx="270" cy="270" r="252" style="fill:none;stroke:rgb(72,68,70);stroke-width:10px;"/>
	<path class="st1" d="M373.4,163.4C397,141,419,117,443.1,93.6"/>
	<path class="st1" d="M96.5,449.5c25-24.6,48.4-50.9,74-76.5"/>
	<g>
		<path class="st2" d="M124.7,154c-19.8,59.9-3,125.1,43.1,166.6l25.5,58.7c0.1,0.1,0.1,0.2,0.2,0.4c1.4,2.7,3.2,4.9,5.3,6.7l0,0
			c8.8,7.2,21.6,5.3,29.7-4.4c5.1-6.1,6.8-13.6,8.7-22.4c0.2-0.9,0.4-1.8,0.6-2.7c28,6.4,57.3,5.2,85-3.6l15.9,46.4
			c0.1,0.3,0.2,0.5,0.3,0.9c1.1,2.1,2.6,3.8,4.3,5.3c7,5.8,17.1,4.4,23.5-3.3c7.5-8.8,10.2-32.4,11.1-43.3
			c10.7-2.9,33.6-9.8,41-18.8c6.4-7.7,6-17.7-1.1-23.5c-1.7-1.4-3.7-2.5-6.1-3.2c-0.3-0.1-0.6-0.1-1-0.2l-48.9-7
			c3.6-28.7-0.7-58.1-12.4-84.2c1.1-0.4,2.2-0.9,3.3-1.4c8.6-3.5,16-6.5,21.2-12.8c8.2-9.7,7.7-22.5-1.1-29.7
			c-2.1-1.8-4.8-3.1-7.7-3.9c-0.1,0-0.2-0.1-0.4-0.1l-67.4-15.2c-24.4-17.3-53.2-27.2-83.4-28.7c-30.1-1.5-59.9,5.3-86.6,19.8
			C126.3,151.2,125.1,152.5,124.7,154z M136.1,160.4c23.9-12.5,50.6-18.3,77.5-17.1c11,0.5,21.7,2.3,32.1,5.2
			c0.2,5.5-0.2,11.3-1.1,17.2c-0.4,2.3,0.5,4.5,2.2,5.9c0.9,0.7,1.9,1.2,3.1,1.4c3.5,0.5,6.8-1.8,7.4-5.2c0.9-5.1,1.3-10.1,1.3-14.9
			c11.5,4.4,22.5,10.3,32.5,17.6c0.7,0.5,1.5,0.9,2.3,1.1l68.4,15.5c1.2,0.3,2.1,0.9,3,1.5c3.2,2.7,3,7.7-0.5,11.8
			c-3.2,3.8-8.6,6.1-16.2,9.1c-2.9,1.2-6.3,2.6-9.7,4.1c-1.6,0.7-2.8,2-3.4,3.6c-0.5,1.6-0.4,3.4,0.3,4.9
			c13.5,27.1,18.2,58.6,13.1,89c-0.3,1.7,0.1,3.4,1.2,4.8s2.6,2.3,4.3,2.6l54.8,7.8c0.4,0.2,0.9,0.3,1.1,0.6
			c1.4,1.2,1.2,3.4-0.6,5.5c-4.6,5.4-25.4,12.5-38.7,15.7c-2.8,0.6-4.7,3-4.9,5.9c-0.7,13.5-3.9,35.2-8.4,40.5
			c-1.8,2.1-3.9,2.8-5.4,1.6c-0.3-0.2-0.5-0.5-0.9-1l-17.9-52c-0.4-1.2-1.1-2.1-2-2.9c-0.4-0.3-0.9-0.6-1.3-0.9
			c-1.6-0.7-3.3-0.9-5-0.2c-29.2,10.6-60.3,11.8-89.9,3.8c-1.7-0.4-3.4-0.2-4.9,0.6c-1.5,0.9-2.6,2.2-3,3.9
			c-0.9,3.3-1.6,6.5-2.1,9.3c-1.7,7.7-3,13.3-6.1,17c-3.5,4.3-8.4,5.3-11.6,2.7l0,0c-0.7-0.6-1.5-1.5-2-2.6L179,314.2
			c-0.3-0.9-1-1.6-1.6-2.2c-10.9-9.6-19.9-20.7-27.3-32.7c27.2-4.6,55.2-21.6,76.2-46.6c10.2-12.2,18.2-25.4,23.8-39.3
			c1.3-3.3-0.3-6.9-3.6-8.3c-3.3-1.3-7,0.3-8.3,3.5c-5.1,12.7-12.4,24.7-21.7,35.8c-20.3,24.1-47.2,40-72.8,42.9
			C127.9,234.8,124.7,196.6,136.1,160.4z"/>
		<path class="st2" d="M177.9,169.8c-6.7,8-5.7,20,2.5,26.7c8.1,6.6,20.3,5.5,27-2.5s5.7-20-2.5-26.7
			C196.8,160.6,184.6,161.8,177.9,169.8z M187.8,177.9c2.2-2.7,6.2-3,8.8-0.9c2.7,2.2,3,6.1,0.9,8.7c-2.2,2.7-6.2,3-8.8,0.9
			C186,184.5,185.6,180.5,187.8,177.9z"/>
	</g>
</g>
</svg>
