<svg viewBox="317 695 44 44" version="1.1" xmlns="http://www.w3.org/2000/svg" xmlns:xlink="http://www.w3.org/1999/xlink">
    <g stroke="none" stroke-width="2" fill="none" fill-rule="evenodd" transform="translate(318.000000, 696.000000)">
        <path d="M20.6649882,0 C32.0782824,0 41.3298118,9.25235294 41.3298118,20.6648235 C41.3298118,32.0781176 32.0782824,41.3296471 20.6649882,41.3296471 C9.25169412,41.3296471 0.000164705882,32.0781176 0.000164705882,20.6648235 C0.000164705882,9.25235294 9.25169412,0 20.6649882,0" class="fill"></path>
        <path d="M20.6649882,0 C32.0782824,0 41.3298118,9.25235294 41.3298118,20.6648235 C41.3298118,32.0781176 32.0782824,41.3296471 20.6649882,41.3296471 C9.25169412,41.3296471 0.000164705882,32.0781176 0.000164705882,20.6648235 C0.000164705882,9.25235294 9.25169412,0 20.6649882,0 L20.6649882,0 Z" class="stroke" stroke-width="2"></path>
        <path d="M20.6649882,10.0409647 L20.6649882,31.4016706" class="stroke vertical" stroke-width="2" stroke-linecap="round" stroke-linejoin="round"></path>
        <path d="M31.3022706,20.6782471 L10.0280353,20.6782471" class="stroke" stroke-width="2" stroke-linecap="round" stroke-linejoin="round"></path>
    </g>
</svg>