<?xml version="1.0" encoding="UTF-8"?>
<svg width="39px" height="18px" viewBox="0 0 39 18" version="1.1" xmlns="http://www.w3.org/2000/svg" xmlns:xlink="http://www.w3.org/1999/xlink">
    <!-- Generator: Sketch 43.2 (39069) - http://www.bohemiancoding.com/sketch -->
    <title>Group</title>
    <desc>Created with Sketch.</desc>
    <defs></defs>
    <g id="Symbols" stroke="none" stroke-width="1" fill="none" fill-rule="evenodd">
        <g id="mobile-menu-account" transform="translate(-118.000000, -17.000000)" stroke-width="1.3" stroke="#52D6AA">
            <g id="mobile-menu">
                <g id="Group-4" transform="translate(96.000000, 1.000000)">
                    <g id="Group" transform="translate(23.000000, 17.000000)">
                        <path d="M18.5,0 L18.5,16 L5.81900203,16 C5.81900203,16 0,16 0,8 C7.19135993e-16,0 5.81900203,0 5.81900203,0 L18.5,0 Z" id="Path-2"></path>
                        <path d="M37,0 L37,16 L24.1111369,16 C24.1111369,16 18.2921348,16.0005208 18.2921348,8.00052083 C18.2921348,0.000520833333 24.1111369,0 24.1111369,0 L37,0 Z" id="Path-2-Copy" transform="translate(27.646067, 8.000000) scale(-1, 1) translate(-27.646067, -8.000000) "></path>
                        <path d="M10.9775281,2.66666667 C10.9775281,2.66666667 6.82022472,2.4 5.36516854,2.93333333 C3.91011236,3.46666667 3.07865169,5.53333333 3.07865169,5.53333333" id="Path-3"></path>
                    </g>
                </g>
            </g>
        </g>
    </g>
</svg>