<?xml version="1.0" encoding="utf-8"?>
<!-- Generator: Adobe Illustrator 21.0.2, SVG Export Plug-In . SVG Version: 6.00 Build 0)  -->
<svg version="1.1" id="Layer_1" xmlns="http://www.w3.org/2000/svg" xmlns:xlink="http://www.w3.org/1999/xlink" x="0px" y="0px"
	 viewBox="0 0 540 540" style="enable-background:new 0 0 540 540;" xml:space="preserve">
<style type="text/css">
	.st0{fill:#FFFFFF;stroke:#30D2A9;stroke-width:10;stroke-miterlimit:10;}
	.st1{fill:#30D2A9;}
</style>
<g>
	<circle class="st0" cx="270" cy="270" r="252"/>
	<g>
		<path class="st1" d="M413.6,216.2c-79.5-79.5-208.9-79.5-288.4,0L72,269.3l54.4,54.4c39.8,39.8,92,59.6,144.2,59.6
			s104.5-19.9,144.2-59.6l53.1-53.1L413.6,216.2z M405.4,314.3c-74.3,74.3-195.2,74.3-269.5,0l-45-45l43.7-43.7
			c74.3-74.3,195.2-74.3,269.5,0l45,45L405.4,314.3z"/>
		<path class="st1" d="M263.1,216.3c-25.8,0-46.8,21-46.8,46.8c0,3.7,3,6.7,6.7,6.7s6.7-3,6.7-6.7c0-18.4,15-33.4,33.4-33.4
			c3.7,0,6.7-3,6.7-6.7S266.8,216.3,263.1,216.3z"/>
		<path class="st1" d="M269.8,182.8c-47.9,0-87,39-87,87s39,87,87,87s87-39,87-87S317.8,182.8,269.8,182.8z M269.8,343.4
			c-40.6,0-73.6-33-73.6-73.6s33-73.6,73.6-73.6s73.6,33,73.6,73.6S310.4,343.4,269.8,343.4z"/>
	</g>
</g>
</svg>
