<?xml version="1.0" encoding="utf-8"?>
<!-- Generator: Adobe Illustrator 21.0.2, SVG Export Plug-In . SVG Version: 6.00 Build 0)  -->
<svg version="1.1" id="Layer_1" xmlns="http://www.w3.org/2000/svg" xmlns:xlink="http://www.w3.org/1999/xlink" x="0px" y="0px"
	 viewBox="0 0 540 540" style="enable-background:new 0 0 540 540;" xml:space="preserve">
<style type="text/css">
	.st0{fill:#FFFFFF;stroke:#30D2A9;stroke-width:10;stroke-miterlimit:10;}
	.st1{fill:#30D2A9;}
</style>
<circle class="st0" cx="270" cy="270" r="252"/>
<g>
	<g>
		<path class="st1" d="M319.6,159.1c-13.1-18.3-30.7-28.3-49.6-28.3c-18.9,0-36.5,10.1-49.6,28.3c-12.5,17.5-19.5,40.7-19.5,65.3
			s6.9,47.8,19.5,65.3c13.1,18.3,30.7,28.3,49.6,28.3c18.9,0,36.5-10.1,49.6-28.3c12.5-17.5,19.5-40.7,19.5-65.3
			S332.1,176.7,319.6,159.1z M270,303.7c-30.1,0-54.6-35.5-54.6-79.2s24.5-79.2,54.6-79.2s54.6,35.5,54.6,79.2
			S300.1,303.7,270,303.7z"/>
		<path class="st1" d="M270,159.6c-24.8,0-44.2,28.5-44.2,64.8c0,4,3.2,7.2,7.2,7.2c4,0,7.2-3.2,7.2-7.2c0-27.3,13.6-50.4,29.8-50.4
			c4,0,7.2-3.2,7.2-7.2S274,159.6,270,159.6z"/>
		<path class="st1" d="M270,428.7c-1.9,0-3.8,0.8-5.1,2.1c-1.3,1.3-2.1,3.2-2.1,5.1c0,1.9,0.8,3.8,2.1,5.1c1.3,1.3,3.2,2.1,5.1,2.1
			s3.8-0.8,5.1-2.1c1.3-1.3,2.1-3.2,2.1-5.1c0-1.9-0.8-3.8-2.1-5.1C273.8,429.5,271.9,428.7,270,428.7z"/>
		<path class="st1" d="M330.4,133.8c2.1-4.2,3.2-8.9,3.2-13.6c0-16.9-13.7-30.6-30.6-30.6c-1.7,0-3.4,0.1-5.1,0.4
			C293.1,79.2,282.3,72,270,72c-12.3,0-23.1,7.2-27.9,17.9c-1.7-0.3-3.4-0.4-5.1-0.4c-16.9,0-30.6,13.7-30.6,30.6
			c0,4.7,1.1,9.4,3.2,13.6c-20.6,22.7-32.3,55.4-32.3,90.7c0,26.1,6.4,50.9,18.5,71.7c11.3,19.4,27.2,34.1,45,41.7
			c1.9,5.1,5.8,18,2.8,34.3c-0.3,1.8-0.7,3.9-1.2,6.1c-4.5,22.6-12,60.5,3.3,79.2c5.8,7,13.9,10.6,24.2,10.6
			c10.3,0,18.5-3.6,24.2-10.6c15.3-18.7,7.8-56.6,3.3-79.2c-0.4-2.2-0.9-4.3-1.2-6.1c-3-16,0.9-29.1,2.8-34.3
			c17.8-7.6,33.7-22.3,45-41.7c12.1-20.8,18.5-45.6,18.5-71.6C362.6,189.2,350.9,156.5,330.4,133.8z M291.5,325.4
			c-1.8,0.6-3.3,1.8-4.2,3.6c-0.4,0.8-9.9,20.1-5.1,45.8c0.3,1.9,0.8,4,1.2,6.3c3.5,17.5,10.7,53.8-0.3,67.3
			c-3,3.6-7.1,5.3-13.1,5.3c-5.9,0-10.1-1.7-13.1-5.3c-11-13.4-3.8-49.8-0.3-67.3c0.5-2.3,0.9-4.4,1.2-6.3
			c4.8-25.7-4.7-44.9-5.1-45.8c-0.9-1.8-2.5-3-4.2-3.6c-33.4-12.9-56.7-54.3-56.7-100.9c0-33.2,12-64.8,32-84.6
			c2.6-2.6,2.9-6.8,0.6-9.6c-2.3-2.9-3.5-6.4-3.5-10.1c0-8.9,7.3-16.2,16.2-16.2c2.4,0,4.7,0.5,6.8,1.5c2.1,1,4.4,0.9,6.4-0.2
			c2-1.1,3.4-3,3.7-5.2c1.3-7.9,8-13.6,16-13.6c8,0,14.7,5.7,16,13.6c0.4,2.2,1.7,4.2,3.7,5.2c2,1.1,4.4,1.1,6.4,0.2
			c2.1-1,4.4-1.5,6.8-1.5c8.9,0,16.2,7.3,16.2,16.2c0,3.7-1.2,7.2-3.5,10.1c-2.3,2.9-2.1,7,0.6,9.6c20,19.8,32,51.4,32,84.6
			C348.2,271.1,324.9,312.5,291.5,325.4z"/>
	</g>
</g>
</svg>
