<?xml version="1.0" encoding="utf-8"?>
<!-- Generator: Adobe Illustrator 21.0.2, SVG Export Plug-In . SVG Version: 6.00 Build 0)  -->
<svg version="1.1" id="Layer_1" xmlns="http://www.w3.org/2000/svg" xmlns:xlink="http://www.w3.org/1999/xlink" x="0px" y="0px"
	 viewBox="0 0 540 540" style="enable-background:new 0 0 540 540;" xml:space="preserve">
<style type="text/css">
	.st0{fill:#FFFFFF;stroke:#30D2A9;stroke-width:10;stroke-miterlimit:10;}
	.st1{fill:#30D2A9;}
</style>
<g>
	<circle class="st0" cx="270" cy="270" r="252"/>
	<g>
		<path class="st1" d="M406.1,232.3c-4.1-6.4-6.4-20.3-5.9-28.8c1.2-19.8-9.3-39.4-25.5-47.7c-3.1-1.6-5.9-2.4-8.4-3.1
			c-4.3-1.2-6-1.7-7.7-5.1c-8.5-17.7-17.9-20.2-35.8-19c-1.7,0.3-3.9-2.5-6.2-4.9c-4-4.2-9.2-9.9-17.6-10.8l-2.7-0.3
			c-11,0-20.9,4-26.6,9.9c-2.8-3.1-6.5-5.8-10.1-7.7c-7.1-3.7-13.7-4.4-18.4-1.8c-8.3,1.6-13.6,6.9-17.6,10.8
			c-3.1,3.1-5.1,5-6.8,4.8c-17.9-1.1-27.3,1.3-35.8,19c-1.6,3.4-3.4,3.9-7.7,5.1c-2.5,0.7-5.3,1.5-8.4,3.1
			c-16.2,8.3-26.7,28-25.5,47.7c0.5,8.5-1.8,22.4-5.9,28.8c-10.2,15.8-10.2,38,0,53.8c1.6,2.4,3.9,5.3,6.5,8.6
			c4.8,5.9,12.7,15.7,12.5,20.2c-1.2,19.9,11,42.9,27.1,51.2c2.9,1.5,3.4,3,4.5,7.6c0.6,2.5,1.4,5.7,3,9.1
			c4.4,9.1,11.3,11.7,16.3,13.7c5,1.9,7.1,2.7,7.8,8.2c2.5,17.8,13.7,24.1,24,24.1c0.6,0,1.2,0,1.7-0.1
			c12.6-0.9,25.8-10.5,32.9-25.4c7.1,14.9,20.3,24.5,32.9,25.4c0.6,0,1.2,0.1,1.7,0.1c10.3,0,21.5-6.3,24-24.1
			c0.8-5.5,2.8-6.3,7.8-8.2c5-1.9,11.9-4.5,16.3-13.7c1.6-3.4,2.4-6.5,3-9.1c1.1-4.6,1.6-6.1,4.5-7.6c16.2-8.3,28.3-31.3,27.1-51.2
			c-0.3-4.5,7.7-14.3,12.5-20.2c2.7-3.3,5-6.1,6.5-8.6C416.3,270.3,416.3,248.2,406.1,232.3z M236.1,418c-7.9,0.4-13-4.7-14.4-14.8
			c-1.6-11.7-9.1-14.6-14.6-16.7c-4.4-1.7-7.9-3-10.5-8.3c-1.1-2.4-1.7-4.7-2.2-6.9c0,0,0-0.1,0-0.1c0.4-0.8,0.7-1.6,0.7-2.5
			c0-14.7,12-26.7,26.7-26.7c2.9,0,5.3-2.4,5.3-5.3c0-3-2.4-5.3-5.3-5.3c-16.8,0-31,11.1-35.7,26.4c-0.5-0.3-1.1-0.7-1.7-1
			c-12.3-6.3-22.3-25.5-21.3-41.1c0.5-8.6-7.6-18.7-14.8-27.6c-2.4-2.9-4.6-5.7-5.9-7.6c-8-12.4-8-29.8,0-42.2
			c5.6-8.7,8.2-24.7,7.6-35.2c-0.9-15.4,7.4-31.2,19.8-37.6c2.2-1.1,4.4-1.8,6.5-2.4c2.2-0.6,4.6-1.4,6.9-2.6
			c0.4,0.1,0.8,0.3,1.3,0.3c11.8,0,21.3,9.6,21.3,21.3c0,3,2.4,5.3,5.3,5.3c2.9,0,5.3-2.4,5.3-5.3c0-15.3-10.7-28-25.1-31.2
			c4.8-9.3,8.8-11.7,18.1-11.7c1.9,0,4.1,0.1,6.6,0.3c6.6,0.4,11.1-4,15-7.9c3.7-3.7,7.3-7.2,12.8-8l1.8-0.3l0.8-0.8
			c1-0.4,3.9-0.3,8.1,1.9c6.1,3.2,9.9,8.2,9.9,9.7v43c-21,2.6-37.3,20.6-37.3,42.3c0,17.7-14.4,32-32,32c-2.9,0-5.3,2.4-5.3,5.3
			c0,3,2.4,5.3,5.3,5.3c23.5,0,42.7-19.1,42.7-42.7c0-15.8,11.6-29,26.7-31.5v191.6C264.4,402.9,247.7,417.2,236.1,418z
			 M397.1,280.4c-1.3,2-3.5,4.7-5.9,7.6c-2.2,2.7-4.4,5.4-6.5,8.2c-5.7-16.8-21.6-29-40.4-29c-17.7,0-32-14.4-32-32
			c0-3-2.4-5.3-5.3-5.3s-5.3,2.4-5.3,5.3c0,23.5,19.1,42.7,42.7,42.7c17.7,0,32,14.4,32,32c0,0.6,0.2,1.2,0.4,1.8
			c-0.3,1.3-0.4,2.6-0.3,3.9c0.9,15.6-9,34.7-21.3,41.1c-0.6,0.3-1.1,0.7-1.7,1c-4.7-15.3-18.9-26.4-35.7-26.4
			c-2.9,0-5.3,2.4-5.3,5.3s2.4,5.3,5.3,5.3c14.7,0,26.7,12,26.7,26.7c0,0.9,0.3,1.7,0.7,2.5c0,0,0,0.1,0,0.1
			c-0.5,2.3-1.1,4.6-2.2,6.9c-2.6,5.3-6,6.6-10.5,8.3c-5.5,2.1-13,4.9-14.6,16.7c-1.4,10.1-6.6,15.2-14.4,14.8
			c-11.6-0.8-28.3-15-28.3-38.7V133.9c0-4,7.8-9.9,18.8-10.6l2.5,0c4.9,0,7.9,2.9,12.3,7.6c3.8,4.1,8.2,8.6,14.7,8.3
			c14.3-0.9,19,0.2,24.8,11.7c-11.4,3-19.8,13.3-19.8,25.7c0,3,2.4,5.3,5.3,5.3s5.3-2.4,5.3-5.3c0-8.8,7.2-16,16-16
			c0.4,0,0.8-0.1,1.3-0.3c2.3,1.3,4.6,2,6.9,2.6c2.1,0.6,4.3,1.2,6.5,2.4c12.4,6.4,20.7,22.2,19.8,37.6c-0.6,10.5,2,26.6,7.6,35.2
			C405.1,250.6,405.1,267.9,397.1,280.4z"/>
		<path class="st1" d="M251.3,260c-2.1-2.1-5.5-2.1-7.5,0c-7.3,7.3-11.3,17-11.3,27.3c0,8.6,2.9,16.8,8.1,23.5
			c-5.2,6.7-8.1,14.9-8.1,23.5c0,10.3,4,20,11.3,27.3c1,1,2.4,1.6,3.8,1.6s2.7-0.5,3.8-1.6c2.1-2.1,2.1-5.5,0-7.5
			c-5.3-5.3-8.2-12.3-8.2-19.8c0-7.5,2.9-14.5,8.2-19.8c2.1-2.1,2.1-5.5,0-7.5c-5.3-5.3-8.2-12.3-8.2-19.8c0-7.5,2.9-14.5,8.2-19.8
			C253.3,265.4,253.3,262.1,251.3,260z"/>
		<path class="st1" d="M295.4,277.8c-2.1,2.1-2.1,5.5,0,7.5c9.9,9.9,9.9,26.1,0,36c-6.8,6.8-10.6,15.9-10.6,25.5
			c0,9.6,3.8,18.7,10.6,25.5c1,1,2.4,1.6,3.8,1.6s2.7-0.5,3.8-1.6c2.1-2.1,2.1-5.5,0-7.5c-4.8-4.8-7.5-11.2-7.5-18s2.7-13.2,7.5-18
			c14.1-14.1,14.1-37,0-51.1C300.9,275.7,297.5,275.7,295.4,277.8z"/>
		<path class="st1" d="M364.8,227.1c-13.8,2.4-27-6.8-29.5-20.7c-1.7-9.5-6.9-17.8-14.8-23.3c-7.9-5.5-17.5-7.7-27-6
			c-2.9,0.5-4.8,3.3-4.3,6.2c0.5,2.9,3.3,4.8,6.2,4.3c6.7-1.2,13.4,0.3,19,4.2c5.6,3.9,9.3,9.7,10.4,16.4
			c3.1,17.5,18.4,29.9,35.6,29.9c2.1,0,4.2-0.2,6.3-0.5c2.9-0.5,4.8-3.3,4.3-6.2C370.5,228.5,367.7,226.6,364.8,227.1z"/>
		<path class="st1" d="M183.7,233c8.8,0,17-5.4,20.3-14.1c1-2.8-0.4-5.8-3.2-6.9c-2.8-1-5.8,0.4-6.9,3.2c-2.1,5.6-8.4,8.5-14,6.5
			c-11.2-4.1-23.6,1.6-27.7,12.8c-1,2.8,0.4,5.8,3.2,6.9c0.6,0.2,1.2,0.3,1.8,0.3c2.2,0,4.2-1.3,5-3.5c2.1-5.6,8.3-8.5,14-6.5
			C178.7,232.5,181.2,233,183.7,233z"/>
		<path class="st1" d="M200.7,314.6c-5.6-2.1-8.5-8.4-6.5-14v0c4.1-11.2-1.6-23.6-12.8-27.7c-2.8-1-5.8,0.4-6.9,3.2
			c-1,2.8,0.4,5.8,3.2,6.9c5.6,2.1,8.5,8.4,6.5,14c0,0,0,0,0,0c-4.1,11.1,1.6,23.6,12.8,27.7c0.6,0.2,1.2,0.3,1.9,0.3
			c2.2,0,4.2-1.3,5-3.5C204.9,318.7,203.4,315.6,200.7,314.6z"/>
	</g>
</g>
</svg>
