<?xml version="1.0" encoding="utf-8"?>
<!-- Generator: Adobe Illustrator 21.0.2, SVG Export Plug-In . SVG Version: 6.00 Build 0)  -->
<svg version="1.1" id="Layer_1" xmlns="http://www.w3.org/2000/svg" xmlns:xlink="http://www.w3.org/1999/xlink" x="0px" y="0px"
	 viewBox="0 0 540 540" style="enable-background:new 0 0 540 540;" xml:space="preserve">
<style type="text/css">
	.st0{fill:#FFFFFF;stroke:#484446;stroke-width:10;stroke-miterlimit:10;}
	.st1{fill:none;stroke:#484446;stroke-width:10;stroke-miterlimit:10;}
	.st2{fill:#484446;}
</style>
<g>
	<circle class="st0" cx="270" cy="270" r="252" style="fill:none;stroke:rgb(72,68,70);stroke-width:10px;"/>
	<path class="st1" d="M373.4,163.4C397,141,419,117,443.1,93.6"/>
	<g>
		<path class="st2" d="M355.4,298.4c-39.5,0.2-71.7,32.5-71.9,71.9c0,4.8,1.9,9.4,5.3,12.8s8,5.3,12.7,5.3h0.1
			c39.5-0.2,71.7-32.5,71.9-71.9c0-4.8-1.9-9.4-5.3-12.8C364.8,300.2,360.1,298.6,355.4,298.4z"/>
		<path class="st2" d="M355.4,199.4c-39.5,0.2-71.7,32.5-71.9,71.9c0,4.8,1.9,9.4,5.3,12.8s8,5.3,12.7,5.3h0.1
			c39.5-0.2,71.7-32.5,71.9-71.9c0-4.8-1.9-9.4-5.3-12.8C364.8,201.2,360.1,199.6,355.4,199.4z"/>
		<path class="st2" d="M193.5,298.4c-5.1,0.2-9.4,1.9-12.8,5.3c-3.4,3.4-5.3,8-5.3,12.8c0.2,39.5,32.5,71.7,71.9,71.9h0.1
			c4.8,0,9.4-1.9,12.7-5.3c3.4-3.4,5.3-8,5.3-12.8C265.2,330.8,233,298.6,193.5,298.4z"/>
		<path class="st2" d="M193.5,199.4c-5.1,0.2-9.4,1.9-12.8,5.3c-3.4,3.4-5.3,8-5.3,12.8c0.2,39.5,32.5,71.7,71.9,71.9h0.1
			c4.8,0,9.4-1.9,12.7-5.3c3.4-3.4,5.3-8,5.3-12.8C265.2,231.8,233,199.6,193.5,199.4z"/>
		<path class="st2" d="M310.4,158.9c0-20.3-8.4-39.4-23.7-53.6c-6.9-6.5-17.7-6.5-24.6,0c-15.3,14.3-23.7,33.3-23.7,53.6
			s8.4,39.4,23.7,53.6c3.5,3.2,7.9,4.9,12.3,4.9s8.8-1.6,12.3-4.9C302,198.2,310.4,179.2,310.4,158.9z"/>
	</g>
	<path class="st1" d="M96.5,449.5c25-24.6,48.4-50.9,74-76.5"/>
</g>
</svg>
