<?xml version="1.0" encoding="utf-8"?>
<!-- Generator: Adobe Illustrator 21.0.2, SVG Export Plug-In . SVG Version: 6.00 Build 0)  -->
<svg version="1.1" id="Layer_1" xmlns="http://www.w3.org/2000/svg" xmlns:xlink="http://www.w3.org/1999/xlink" x="0px" y="0px"
	 viewBox="0 0 540 540" style="enable-background:new 0 0 540 540;" xml:space="preserve">
<style type="text/css">
	.st0{fill:#FFFFFF;stroke:#484446;stroke-width:10;stroke-miterlimit:10;}
	.st1{fill:#484446;}
</style>
<circle class="st0" cx="270" cy="270" r="252" style="fill:none;stroke:rgb(72,68,70);stroke-width:10px;"/>
<g transform="matrix(0.1,0,0,-0.1,0,362)">
	<path class="st1" d="M3905.1,2302.8c-64.9-17-201.9-47.8-304-68.1c-260.2-51.1-301.6-66.5-417.5-152.4
		c-164.6-122.4-279.7-359.1-278.9-574c0.8-81.9,13-140.3,26.8-124.8c3.2,4.1,14.6,27.6,24.3,51.9
		c49.5,119.2,192.9,300.8,315.4,398.9c62.4,50.3,188.1,99.7,188.1,73.8c0-8.9-43-62.4-94-115.9c-47.8-51.1-64-72.2-154-202.7
		c-93.2-137-214.8-381.8-296.7-599.9c-79.4-211.6-137.8-380.2-176.7-506.7c-65.8-216.6-125-387.7-135.6-390.9
		c-13-4.9-48.6,111.1-123.2,398.9c-115.9,450.8-165.4,605.6-283.7,887.7c-81.1,192.1-188.1,346.2-405.4,582.1
		c-119.2,130.5-288.6,255.4-390.8,289.4c-66.5,22.7-72.2,11.3-21.9-44.6c236.7-266.7,373.7-464.5,518.9-745.9
		c122.4-239.2,206.7-476.7,360-1021.5c38.9-139.4,124.8-494.5,152.4-632.4c30.8-153.2,64.9-303.2,73.8-326.7
		c3.2-7.3,15.4-17,27.6-20.3c27.6-7.3,160.5-7.3,188.9,0c42.2,12.2,50.3,45.4,108.6,428.1c38.9,258.6,72.2,413.5,138.6,644.5
		c112.7,394,232.7,682.6,305.6,729.6c10.5,6.5,62.4,19.5,116.7,28.4c210.8,34.9,380.2,128.1,500.2,276.5
		c80.3,98.9,101.3,171.9,121.6,415.1c10.5,128.9,17,165.4,41.3,242.4c15.4,50.3,25.9,95.7,24.3,101.3
		C4050.3,2339.2,4037.3,2337.6,3905.1,2302.8z"/>
</g>
</svg>
