<?xml version="1.0" encoding="utf-8"?>
<!-- Generator: Adobe Illustrator 21.0.2, SVG Export Plug-In . SVG Version: 6.00 Build 0)  -->
<svg version="1.1" id="Layer_1" xmlns="http://www.w3.org/2000/svg" xmlns:xlink="http://www.w3.org/1999/xlink" x="0px" y="0px"
	 viewBox="0 0 540 540" style="enable-background:new 0 0 540 540;" xml:space="preserve">
<style type="text/css">
	.st0{fill:#FFFFFF;stroke:#30D2A9;stroke-width:10;stroke-miterlimit:10;}
	.st1{fill:#30D2A9;}
</style>
<circle class="st0" cx="270" cy="270" r="252"/>
<g>
	<path class="st1" d="M449.4,215.5c-5.3-57.8-46.2-99.8-97.4-99.8c-34.1,0-65.4,18.4-83,47.8c-17.4-29.8-47.4-47.8-81-47.8
		c-51.2,0-92.2,42-97.4,99.8c-0.4,2.6-2.1,16,3.1,37.9c7.5,31.6,24.7,60.4,49.8,83.2l125.4,113.8l127.6-113.8
		c25.1-22.8,42.4-51.5,49.8-83.2C451.5,231.5,449.8,218,449.4,215.5z M432.9,250.2c-6.8,28.9-22.6,55.2-45.6,76.1L269,431.7
		L152.8,326.3c-23.1-20.9-38.8-47.2-45.7-76.1c-4.9-20.7-2.9-32.5-2.9-32.5l0.1-0.7c4.5-50.7,39.7-87.5,83.7-87.5
		c32.5,0,61,19.9,74.6,52l6.4,15.1l6.4-15.1c13.3-31.6,43.4-52,76.6-52c44,0,79.2,36.8,83.7,88.1
		C435.7,217.7,437.8,229.5,432.9,250.2z"/>
	<path class="st1" d="M200.8,157.7c-38.2,0-69.2,31.1-69.2,69.2c0,3.8,3.1,6.9,6.9,6.9s6.9-3.1,6.9-6.9c0-30.5,24.8-55.4,55.4-55.4
		c3.8,0,6.9-3.1,6.9-6.9S204.6,157.7,200.8,157.7z"/>
</g>
</svg>
