<svg viewBox="829 91 41 41" version="1.1" xmlns="http://www.w3.org/2000/svg" xmlns:xlink="http://www.w3.org/1999/xlink">
    <path d="M855.288125,113.962157 L850.298947,118.261508 L850.298947,103.997367 C850.298947,103.556899 849.941465,103.199417 849.500997,103.199417 C849.060529,103.199417 848.703048,103.556899 848.703048,103.997367 L848.703048,118.261508 L843.713072,113.962157 C843.379131,113.674497 842.874827,113.712 842.587565,114.045942 C842.300303,114.379884 842.337408,114.884188 842.67135,115.171449 L849.500997,121.055527 L856.329847,115.171449 C856.663789,114.88339 856.701293,114.379884 856.413233,114.045942 C856.125971,113.712 855.622066,113.674497 855.288125,113.962157 M849.500997,130.405099 C839.353477,130.405099 831.096696,122.149117 831.095899,112 C831.095899,101.851282 839.351881,93.5949011 849.500199,93.5949011 C859.648119,93.5949011 867.904101,101.851282 867.904101,112 C867.904101,122.149117 859.648518,130.405099 849.500997,130.405099 M849.500199,91.9990026 C838.471743,91.9990026 829.5,100.971543 829.5,112 C829.500798,123.028856 838.47294,132.000997 849.500997,132.000997 C860.528656,132.000997 869.5,123.028856 869.5,112 C869.5,100.971543 860.528257,91.9990026 849.500199,91.9990026" id="Page-1" stroke="none" fill="#52D6AA" fill-rule="evenodd" transform="translate(849.500000, 112.000000) rotate(-90.000000) translate(-849.500000, -112.000000) "></path>
</svg>