<?xml version="1.0" encoding="UTF-8" standalone="no"?>
<!DOCTYPE svg PUBLIC "-//W3C//DTD SVG 1.1//EN" "http://www.w3.org/Graphics/SVG/1.1/DTD/svg11.dtd">
<svg width="100%" height="100%" viewBox="0 0 540 540" version="1.1" xmlns="http://www.w3.org/2000/svg" xmlns:xlink="http://www.w3.org/1999/xlink" xml:space="preserve" xmlns:serif="http://www.serif.com/" style="fill-rule:evenodd;clip-rule:evenodd;stroke-miterlimit:10;">
    <circle cx="270" cy="270" r="252" style="fill:none;stroke:rgb(72,68,70);stroke-width:10px;"/>
    <path d="M373.4,163.4C397,141 419,117 443.1,93.6" style="fill:none;stroke:rgb(72,68,70);stroke-width:10px;"/>
    <path d="M96.5,449.5C114.7,431.6 131.8,412.4 150.4,393.7" style="fill:none;stroke:rgb(72,68,70);stroke-width:10px;"/>
    <g>
        <path d="M389,207C389,206.9 389,206.9 389,206.8C389,206.7 389,206.6 389,206.6C389,206.5 389,206.5 388.9,206.4C388.9,206.3 388.9,206.3 388.9,206.2C388.9,206.1 388.9,206 388.8,206C388.8,205.9 388.8,205.9 388.7,205.8C388.7,205.7 388.6,205.7 388.6,205.6C388.6,205.5 388.5,205.5 388.5,205.4C388.5,205.3 388.4,205.3 388.4,205.2C388.4,205.1 388.3,205.1 388.3,205C388.3,204.9 388.2,204.9 388.2,204.8C388.2,204.7 388.1,204.7 388.1,204.6C388.1,204.5 388,204.5 388,204.4L388,204.3L339.3,149.1L339.3,126.8C339.3,124.3 337.3,122.2 334.7,122.2L215.4,122.2C212.9,122.2 210.8,124.2 210.8,126.8L210.8,149.1L162.1,204.3L162.1,204.4C162.1,204.5 162,204.5 162,204.6C162,204.7 161.9,204.7 161.9,204.8C161.9,204.9 161.8,204.9 161.8,205C161.8,205.1 161.7,205.1 161.7,205.2C161.7,205.3 161.6,205.3 161.6,205.4C161.6,205.5 161.5,205.5 161.5,205.6C161.5,205.7 161.4,205.7 161.4,205.8C161.4,205.9 161.4,205.9 161.3,206C161.3,206.1 161.2,206.2 161.2,206.2C161.2,206.3 161.2,206.3 161.2,206.4C161.2,206.5 161.2,206.5 161.1,206.6L161.1,403.5C161.1,406 163.1,408.1 165.7,408.1L384.6,408.1C387.1,408.1 389.2,406.1 389.2,403.5L389.2,207.5C389,207.3 389,207.2 389,207ZM374.3,202.9L294.8,202.9L334.6,157.8L374.3,202.9ZM330,131.5L330,146.4L251.9,146.4C249.4,146.4 247.3,148.4 247.3,151C247.3,153.5 249.3,155.6 251.9,155.6L324.5,155.6L282.7,203L175.7,203L217.5,155.6L233.7,155.6C236.2,155.6 238.3,153.6 238.3,151C238.3,148.5 236.3,146.4 233.7,146.4L220,146.4L220,131.5L330,131.5ZM170.1,248.5L280.1,248.5L280.1,362.5L170.1,362.5L170.1,248.5ZM280.1,239.4L170.1,239.4L170.1,212L280.1,212L280.1,239.4ZM170.1,371.6L280.1,371.6L280.1,399L170.1,399L170.1,371.6ZM289.3,399L289.3,212L379.9,212L379.9,239.4L303,239.4C300.5,239.4 298.4,241.4 298.4,244C298.4,246.6 300.4,248.6 303,248.6L379.9,248.6L379.9,362.6L303,362.6C300.5,362.6 298.4,364.6 298.4,367.2C298.4,369.7 300.4,371.8 303,371.8L379.9,371.8L379.9,399L289.3,399Z" style="fill:rgb(72,68,70);fill-rule:nonzero;"/>
        <path d="M251.2,295.5L228.8,265.5C227.9,264.3 226.6,263.7 225.1,263.7C223.7,263.7 222.3,264.4 221.4,265.5L199,295.5C194.8,301.1 192.6,307.8 192.6,314.9C192.6,332.8 207.2,347.4 225.1,347.4C243,347.4 257.6,332.8 257.6,314.9C257.6,307.8 255.4,301.1 251.2,295.5ZM225.1,338.2C212.2,338.2 201.8,327.7 201.8,314.9C201.8,309.8 203.4,305 206.4,301L225.1,275.9L243.8,301C246.8,305 248.4,309.9 248.4,314.9C248.5,327.7 238,338.2 225.1,338.2Z" style="fill:rgb(72,68,70);fill-rule:nonzero;"/>
    </g>
</svg>
