<?xml version="1.0" encoding="utf-8"?>
<!-- Generator: Adobe Illustrator 21.0.2, SVG Export Plug-In . SVG Version: 6.00 Build 0)  -->
<svg version="1.1" id="Layer_1" xmlns="http://www.w3.org/2000/svg" xmlns:xlink="http://www.w3.org/1999/xlink" x="0px" y="0px"
	 viewBox="0 0 540 540" style="enable-background:new 0 0 540 540;" xml:space="preserve">
<style type="text/css">
	.st0{fill:#FFFFFF;stroke:#484446;stroke-width:10;stroke-miterlimit:10;}
	.st1{fill:none;stroke:#484446;stroke-width:10;stroke-miterlimit:10;}
	.st2{fill:#484446;}
</style>
<g>
	<circle class="st0" cx="270" cy="270" r="252" style="fill:none;stroke:rgb(72,68,70);stroke-width:10px;"/>
	<path class="st1" d="M340.8,196c34.6-32.9,66.9-68.1,102.3-102.4"/>
	<path class="st1" d="M96.5,449.5c36.9-36.3,71.5-75.2,109.3-113"/>
	<g>
		<path class="st2" d="M187.4,182.4c-7,7-10.9,16.3-10.9,26.2s3.9,19.2,10.9,26.2s16.3,10.9,26.2,10.9s19.2-3.9,26.2-10.9
			c14.5-14.5,14.5-38,0-52.5c-7-7-16.3-10.9-26.2-10.9C203.7,171.6,194.4,175.4,187.4,182.4z M194.3,208.7c0-5.2,2-10,5.7-13.6
			c3.6-3.6,8.5-5.7,13.6-5.7c5.2,0,10,2,13.6,5.7c7.5,7.5,7.5,19.8,0,27.3c-3.6,3.6-8.5,5.7-13.6,5.7s-10-2-13.6-5.7
			C196.3,218.7,194.3,213.8,194.3,208.7z"/>
		<path class="st2" d="M251.2,246.3c-14.5,14.5-14.5,38,0,52.5c7,7,16.3,10.9,26.2,10.9s19.2-3.9,26.2-10.9
			c14.5-14.5,14.5-38,0-52.5c-7-7-16.3-10.9-26.2-10.9C267.6,235.4,258.2,239.3,251.2,246.3z M263.8,258.9c3.6-3.6,8.5-5.7,13.6-5.7
			s10,2,13.6,5.7c7.5,7.5,7.5,19.8,0,27.3c-3.6,3.6-8.5,5.7-13.6,5.7s-10-2-13.6-5.7C256.3,278.7,256.3,266.4,263.8,258.9z"/>
		<path class="st2" d="M134.4,204.2c2.9,21.3,12.5,40.7,27.8,55.9c11.2,11.2,24.8,19.4,39.7,24.1c4.7,14.9,13,28.6,24.1,39.7
			c11.1,11.2,24.8,19.4,39.7,24.1c4.7,14.9,13,28.6,24.1,39.7c18.5,18.5,43.1,28.7,69.3,28.7l0,0c16.4,0,32.6-4.1,46.8-11.9l2.3-1.3
			l1.3-2.3c9.9-18.2,13.8-39.6,11-60.2c-2.9-21.3-12.5-40.7-27.8-55.9c-11.2-11.2-24.8-19.4-39.7-24.1c-4.7-14.9-13-28.6-24.1-39.7
			c-11.1-11.2-24.8-19.4-39.7-24.1c-4.7-14.9-13-28.6-24.1-39.7c-18.5-18.5-43.1-28.7-69.3-28.7c-16.4,0-32.6,4.1-46.8,11.9
			l-2.3,1.3l-1.3,2.3C135.5,162.2,131.6,183.6,134.4,204.2z M159.8,154.8c11.1-5.6,23.5-8.5,36-8.5c21.4,0,41.5,8.3,56.7,23.5
			c10.1,10.1,17.4,22.8,20.9,36.6l1.3,5.1l5.1,1.3c13.8,3.6,26.4,10.8,36.6,20.9c10.1,10.1,17.4,22.8,20.9,36.6l1.3,5.1l5.1,1.3
			c13.8,3.6,26.4,10.8,36.6,20.9c24.3,24.3,30.3,62.1,15,92.7c-11.1,5.6-23.5,8.5-36,8.5c-21.4,0-41.5-8.3-56.7-23.5
			c-10.1-10.1-17.4-22.8-20.9-36.6l-1.3-5.1l-5.1-1.3c-13.8-3.6-26.4-10.8-36.6-20.9c-10.1-10.1-17.4-22.8-20.9-36.6l-1.3-5.1
			l-5.1-1.3c-13.8-3.6-26.4-10.8-36.6-20.9C150.4,223.2,144.4,185.4,159.8,154.8z"/>
		<path class="st2" d="M315.1,310.2c-14.5,14.5-14.5,38,0,52.5c7,7,16.3,10.9,26.2,10.9c9.9,0,19.2-3.9,26.2-10.9
			s10.9-16.3,10.9-26.2s-3.9-19.2-10.9-26.2s-16.3-10.9-26.2-10.9C331.4,299.3,322.1,303.2,315.1,310.2z M327.7,322.8
			c3.6-3.6,8.5-5.7,13.6-5.7s10,2,13.6,5.7c3.6,3.6,5.7,8.5,5.7,13.6c0,5.2-2,10-5.7,13.6c-3.6,3.6-8.5,5.7-13.6,5.7
			c-5.2,0-10-2-13.6-5.7C320.2,342.5,320.2,330.3,327.7,322.8z"/>
	</g>
</g>
</svg>
