<?xml version="1.0" standalone="no"?>
<!DOCTYPE svg PUBLIC "-//W3C//DTD SVG 20010904//EN"
 "http://www.w3.org/TR/2001/REC-SVG-20010904/DTD/svg10.dtd">
<svg version="1.0" xmlns="http://www.w3.org/2000/svg"
 width="300.000000pt" height="300.000000pt" viewBox="0 0 300.000000 300.000000"
 preserveAspectRatio="xMidYMid meet">
<metadata>
Created by potrace 1.11, written by Peter Selinger 2001-2013
</metadata>
<g transform="translate(0.000000,300.000000) scale(0.100000,-0.100000)"
fill="#000000" stroke="none">
<path d="M1942 2864 c-10 -7 -45 -52 -78 -100 -57 -86 -104 -140 -155 -179
-36 -27 -74 -88 -114 -181 -36 -83 -183 -285 -220 -301 -11 -5 -31 -6 -45 -2
-53 15 -72 10 -112 -31 -21 -23 -47 -58 -57 -78 -18 -34 -124 -183 -161 -224
-8 -9 -51 -62 -95 -117 -44 -55 -85 -99 -91 -98 -6 1 -60 58 -121 127 -60 69
-117 131 -126 139 -37 30 -61 7 -249 -246 -101 -137 -199 -269 -217 -294 -18
-26 -48 -55 -67 -65 l-34 -19 0 -497 c0 -468 1 -497 18 -494 9 2 62 7 116 11
55 4 107 8 116 10 9 2 68 6 131 10 63 3 130 8 149 10 42 4 219 14 345 20 336
15 491 18 890 18 473 0 696 -5 1113 -28 l122 -7 0 71 c0 61 -2 71 -17 71 -25
1 -184 11 -207 14 -12 2 -20 12 -22 29 -5 54 -123 293 -167 339 -6 7 -32 40
-57 73 -25 33 -178 194 -342 357 -322 323 -349 359 -351 455 0 68 31 123 127
221 94 97 105 114 106 165 0 40 -4 49 -90 212 -51 97 -52 101 -48 167 5 69 47
173 101 253 l24 35 49 -57 c27 -32 51 -60 54 -63 7 -6 310 -355 440 -505 52
-60 104 -118 115 -127 56 -47 168 -78 253 -70 30 3 32 5 32 45 l0 42 -66 -1
c-75 -2 -117 9 -155 41 -14 11 -82 86 -150 166 -68 79 -135 158 -150 174 -15
17 -93 107 -174 200 -185 213 -190 219 -246 276 -49 49 -81 58 -117 33z
m-1372 -1171 c0 -5 19 -28 42 -53 73 -81 122 -136 169 -191 26 -30 57 -66 70
-80 13 -14 42 -46 63 -70 22 -24 58 -64 80 -89 23 -25 73 -81 111 -125 39 -43
79 -88 90 -100 11 -11 51 -56 90 -100 38 -44 74 -85 80 -91 17 -19 56 -65 150
-174 50 -58 104 -121 122 -140 17 -19 30 -37 27 -41 -2 -4 -70 -8 -152 -9
-154 -2 -223 -4 -512 -15 l-175 -6 -225 149 c-229 152 -288 199 -316 253 -34
66 14 126 174 218 108 62 157 106 184 169 20 46 27 119 14 159 -4 13 -33 44
-64 69 -71 58 -81 72 -88 127 -5 37 -2 54 21 96 25 46 45 64 45 44z"/>
</g>
</svg>
