<?xml version="1.0" encoding="utf-8"?>
<!-- Generator: Adobe Illustrator 16.0.4, SVG Export Plug-In . SVG Version: 6.00 Build 0)  -->
<!DOCTYPE svg PUBLIC "-//W3C//DTD SVG 1.1//EN" "http://www.w3.org/Graphics/SVG/1.1/DTD/svg11.dtd">
<svg version="1.1" id="Layer_1" xmlns="http://www.w3.org/2000/svg" xmlns:xlink="http://www.w3.org/1999/xlink" x="0px" y="0px"
	 width="32.917px" height="32.833px" viewBox="0 0 32.917 32.833" enable-background="new 0 0 32.917 32.833" xml:space="preserve">
<path fill="#FAFAFD" d="M16.383,32.471c8.837,0,16-7.163,16-16c0-8.836-7.163-16-16-16c-8.836,0-16,7.164-16,16
	C0.383,25.308,7.547,32.471,16.383,32.471z M11.579,13.997h2.846v-2.638c0,0-0.119-1.724,1.189-3.032
	c1.307-1.308,3.068-1.184,5.574-0.965v2.943h-1.854c0,0-0.777-0.016-1.145,0.405c-0.365,0.42-0.326,1.02-0.326,1.167v2.119h3.215
	l-0.412,3.278h-2.818v8.445h-3.412v-8.462h-2.857V13.997z"/>
</svg>
