<?xml version="1.0" encoding="utf-8"?>
<!-- Generator: Adobe Illustrator 16.0.4, SVG Export Plug-In . SVG Version: 6.00 Build 0)  -->
<!DOCTYPE svg PUBLIC "-//W3C//DTD SVG 1.1//EN" "http://www.w3.org/Graphics/SVG/1.1/DTD/svg11.dtd">
<svg version="1.1" xmlns="http://www.w3.org/2000/svg" xmlns:xlink="http://www.w3.org/1999/xlink" x="0px" y="0px" width="200px"
	 height="20.439px" viewBox="0 0 200 20.439" enable-background="new 0 0 200 20.439" xml:space="preserve">
<g id="margins" display="none">
	<g display="inline">
		<path fill="#ECECEC" d="M-124.109-19.344h35.837v-22.322h7.566v30.505h-43.403V-19.344z"/>
	</g>
	<g display="inline">
		<path fill="#ECECEC" d="M324.376,40.208h-35.837v22.32h-7.568V32.022h43.405V40.208z"/>
	</g>
	<g display="inline">
		<path fill="#ECECEC" d="M332.3-11.262v35.839h22.32v7.568h-30.506v-43.407H332.3z"/>
	</g>
	<g display="inline">
		<path fill="#ECECEC" d="M-132.18,32.077V-3.76h-22.321v-7.569h30.506v43.406H-132.18z"/>
	</g>
	<g display="inline">
		<g>
			
				<line fill="none" stroke="#ECECEC" stroke-width="0.25" stroke-miterlimit="10" x1="-155.043" y1="-11.281" x2="-154.043" y2="-11.281"/>
			
				<line fill="none" stroke="#ECECEC" stroke-width="0.25" stroke-miterlimit="10" stroke-dasharray="2.0078,2.0078" x1="-152.036" y1="-11.281" x2="352.917" y2="-11.281"/>
			
				<line fill="none" stroke="#ECECEC" stroke-width="0.25" stroke-miterlimit="10" x1="353.921" y1="-11.281" x2="354.921" y2="-11.281"/>
		</g>
	</g>
	<g display="inline">
		<g>
			
				<line fill="none" stroke="#ECECEC" stroke-width="0.25" stroke-miterlimit="10" x1="-155.043" y1="32.346" x2="-154.043" y2="32.346"/>
			
				<line fill="none" stroke="#ECECEC" stroke-width="0.25" stroke-miterlimit="10" stroke-dasharray="2.0078,2.0078" x1="-152.036" y1="32.346" x2="352.917" y2="32.346"/>
			
				<line fill="none" stroke="#ECECEC" stroke-width="0.25" stroke-miterlimit="10" x1="353.921" y1="32.346" x2="354.921" y2="32.346"/>
		</g>
	</g>
	
		<line display="inline" fill="none" stroke="#ECECEC" stroke-width="0.25" stroke-miterlimit="10" stroke-dasharray="2" x1="324.099" y1="-41.746" x2="324.099" y2="62.599"/>
	
		<line display="inline" fill="none" stroke="#ECECEC" stroke-width="0.25" stroke-miterlimit="10" stroke-dasharray="2" x1="-123.863" y1="-41.746" x2="-123.863" y2="62.599"/>
</g>
<g id="logo">
	<g>
		<path fill="#1D0E23" d="M24.957,15.963l-1.227,0.391l-0.145-1.845l1.24-1.847c-0.014-0.237-0.021-0.464-0.021-0.672
			c0-3.283,1.347-5.768,1.347-5.768h0.003c0,0,1.348,2.485,1.348,5.768c0,0.207-0.008,0.431-0.022,0.668l1.244,1.851l-0.144,1.845
			l-1.228-0.391l-0.265,4.029h9.384L26.154,0L15.837,19.992h9.382L24.957,15.963z"/>
		<path fill="#1D0E23" d="M3.653,0.622v15.998h9.964v3.377H0V0.622H3.653z"/>
		<path fill="#1D0E23" d="M54.098,0.649v11.099c0,5.729-3.514,8.663-8.386,8.663c-4.649,0-8.609-2.822-8.609-8.663V0.649h3.627
			v11.099c0,3.487,1.993,5.341,5.009,5.341c3.017,0,4.733-2.02,4.733-5.341V0.649H54.098z"/>
		<path fill="#1D0E23" d="M70.402,0.594h3.653v19.402h-2.271v0.026L61.601,6.932v13.064h-3.654V0.622h2.96l9.495,12.012V0.594z"/>
		<path fill="#1D0E23" d="M94.483,17.562c-1.993,1.964-4.567,2.878-7.361,2.878c-7.198,0-10.241-4.955-10.271-9.993
			C76.825,5.381,80.119,0.233,87.122,0.233c2.628,0,5.119,0.996,7.113,2.962l-2.437,2.352c-1.273-1.245-2.989-1.827-4.676-1.827
			c-4.679,0-6.699,3.488-6.671,6.726c0.027,3.212,1.882,6.561,6.671,6.561c1.688,0,3.598-0.693,4.871-1.965L94.483,17.562z"/>
		<path fill="#1D0E23" d="M109.737,20.022v-7.831h-9.522v7.831H96.56V0.649h3.655v8.165h9.522V0.649h3.626v19.374H109.737z"/>
		<path fill="#1D0E23" d="M132.546,6.241c0,1.494-0.72,2.933-2.521,3.736c2.271,0.69,3.101,3.1,3.101,4.318
			c0,4.317-3.238,5.701-7.25,5.701c-3.073,0-6.117,0-9.188,0V0.622c3.043,0,6.115,0,9.188,0
			C129.695,0.622,132.546,2.336,132.546,6.241z M120.283,8.399h5.593c2.297,0,3.044-0.969,3.044-2.076c0-0.886-0.72-2.38-3.044-2.38
			h-5.593V8.399z M120.283,16.592h5.593c1.493,0,3.624-0.498,3.624-2.324c0-1.745-2.131-2.658-3.624-2.658h-5.593V16.592z"/>
		<path fill="#1D0E23" d="M155.049,10.419c-0.055,5.01-3.127,10.021-9.937,10.021c-6.808,0-9.965-4.899-9.965-9.993
			c0-5.092,3.267-10.213,9.965-10.213C151.782,0.233,155.104,5.354,155.049,10.419z M138.746,10.502
			c0.083,3.183,1.799,6.586,6.366,6.586c4.566,0,6.282-3.431,6.337-6.614c0.058-3.267-1.771-6.92-6.337-6.92
			C140.545,3.555,138.662,7.236,138.746,10.502z"/>
		<path fill="#1D0E23" d="M176.778,10.419c-0.056,5.01-3.13,10.021-9.938,10.021c-6.81,0-9.964-4.899-9.964-9.993
			c0-5.092,3.267-10.213,9.964-10.213C173.512,0.233,176.833,5.354,176.778,10.419z M160.474,10.502
			c0.084,3.183,1.801,6.586,6.367,6.586c4.565,0,6.283-3.431,6.338-6.614c0.055-3.267-1.772-6.92-6.338-6.92
			C162.274,3.555,160.391,7.236,160.474,10.502z"/>
		<path fill="#1D0E23" d="M196.347,5.963l-6.312,8.415h-0.72l-6.171-8.442v14.087h-3.653V0.649h4.207l6.062,8.33l6.062-8.33H200
			v19.374h-3.653V5.963z"/>
	</g>
</g>
<g id="guides" display="none">
</g>
</svg>
