<?xml version="1.0" encoding="utf-8"?>
<!-- Generator: Adobe Illustrator 16.0.4, SVG Export Plug-In . SVG Version: 6.00 Build 0)  -->
<!DOCTYPE svg PUBLIC "-//W3C//DTD SVG 1.1//EN" "http://www.w3.org/Graphics/SVG/1.1/DTD/svg11.dtd">
<svg version="1.1" id="Layer_1" xmlns="http://www.w3.org/2000/svg" xmlns:xlink="http://www.w3.org/1999/xlink" x="0px" y="0px"
	 width="32.75px" height="32.833px" viewBox="0 0 32.75 32.833" enable-background="new 0 0 32.75 32.833" xml:space="preserve">
<path fill="#FAFAFD" d="M16.405,32.471c8.836,0,16-7.163,16-16c0-8.836-7.164-16-16-16c-8.837,0-16,7.164-16,16
	C0.405,25.308,7.568,32.471,16.405,32.471z M12.624,20.809c0,0-2.765-0.053-3.562-2.633c0,0,1.382,0.107,1.622-0.158
	c0,0-2.979-0.719-3.005-3.83c0,0,0.903,0.453,1.728,0.479c0,0-2.871-2.074-1.13-5.172c0,0,2.899,3.843,7.937,4.108
	c0,0-0.682-2.269,1.41-4.006c2.092-1.738,4.68-0.267,5.176,0.389c0,0,1.472-0.23,2.499-0.921c0,0-0.336,1.327-1.577,2.126
	c0,0,1.453-0.192,2.127-0.584c0,0-0.709,1.135-1.932,2.003c0,0,0.514,4.795-3.607,8.757c-4.121,3.963-10.902,3.138-13.348,1.064
	C6.961,22.432,10.284,22.804,12.624,20.809z"/>
</svg>
